<svg xmlns="http://www.w3.org/2000/svg" xml:space="preserve" width="2048" height="2048" style="shape-rendering:geometricPrecision;text-rendering:geometricPrecision;image-rendering:optimizeQuality;fill-rule:evenodd;clip-rule:evenodd"><defs><style>.fil3{fill:rgb(101,46,195);fill-rule:nonzero}</style></defs><g id="Layer_x0020_1"><rect width="2048" height="2048" rx="256.001" ry="256.001" style="fill:none"/><path style="fill:none" d="M255.999 255.999H1792V1792H255.999z"/><path d="M1056 707.913c61.369 6.312 117.416 30.576 162.803 67.455l84.627-84.627c12.495-12.495 32.756-12.495 45.25 0 12.495 12.495 12.495 32.755 0 45.25l-84.629 84.63c36.905 45.42 61.176 101.511 67.468 162.927h119.653c17.604 0 31.876 14.271 31.876 31.876 0 17.604-14.272 31.875-31.876 31.875h-119.65c-6.292 61.418-30.564 117.51-67.47 162.928l84.63 84.629c12.494 12.494 12.494 32.755 0 45.25-12.496 12.495-32.756 12.495-45.251 0l-84.629-84.628c-45.387 36.877-101.434 61.142-162.802 67.454v119.665c0 17.672-14.328 32-32 32-17.673 0-32.001-14.328-32.001-32v-119.665c-61.369-6.312-117.416-30.577-162.803-67.454l-84.629 84.628c-12.494 12.495-32.755 12.495-45.25 0-12.495-12.495-12.495-32.756 0-45.25l84.63-84.632c-36.902-45.419-61.174-101.51-67.467-162.924H596.826c-17.605 0-31.876-14.272-31.876-31.876s14.271-31.876 31.876-31.876h119.65c6.291-61.417 30.564-117.509 67.468-162.928l-84.629-84.628c-12.494-12.495-12.494-32.755 0-45.25 12.495-12.495 32.756-12.495 45.25 0l84.628 84.627C874.58 738.49 930.63 714.224 992 707.912V588.25c0-17.672 14.328-32 32-32 17.674 0 32.002 14.328 32.002 32v119.663z" style="fill:rgb(101,46,195)"/><path d="M1024 236.249c35.342 0 67.342 14.328 90.507 37.493 23.165 23.165 37.493 55.164 37.493 90.507 0 35.34-14.328 67.341-37.493 90.506-23.165 23.164-55.165 37.493-90.507 37.493-35.342 0-67.342-14.329-90.507-37.492C910.328 431.59 896 399.59 896 364.248c0-35.343 14.328-67.342 37.493-90.507 23.165-23.165 55.165-37.493 90.507-37.493zM1024 1555.75c35.342 0 67.342 14.33 90.507 37.493 23.165 23.165 37.493 55.166 37.493 90.507 0 35.342-14.328 67.341-37.493 90.506-23.165 23.165-55.165 37.493-90.507 37.493-35.342 0-67.342-14.328-90.507-37.493-23.165-23.165-37.493-55.164-37.493-90.506 0-35.341 14.328-67.342 37.493-90.507 23.165-23.164 55.165-37.493 90.507-37.493zM1581.02 466.979c24.994 24.992 37.493 57.752 37.493 90.507 0 32.752-12.498 65.512-37.493 90.507-24.993 24.993-57.755 37.492-90.507 37.492s-65.512-12.5-90.507-37.492c-24.993-24.995-37.493-57.755-37.493-90.507s12.5-65.514 37.493-90.507c24.995-24.995 57.755-37.493 90.507-37.493 32.755 0 65.515 12.498 90.507 37.493zM647.992 1400.01c24.993 24.994 37.493 57.755 37.493 90.507s-12.5 65.513-37.493 90.507c-24.994 24.994-57.755 37.493-90.507 37.493-32.754 0-65.514-12.499-90.507-37.493-24.994-24.992-37.493-57.753-37.493-90.507 0-32.752 12.499-65.513 37.493-90.507 24.994-24.993 57.755-37.493 90.507-37.493s65.512 12.5 90.507 37.493zM1811.75 1024c0 35.342-14.328 67.342-37.493 90.507-23.165 23.165-55.165 37.493-90.507 37.493-35.34 0-67.341-14.328-90.506-37.493-23.164-23.165-37.493-55.165-37.493-90.507 0-35.342 14.329-67.342 37.493-90.507 23.165-23.165 55.165-37.493 90.506-37.493 35.343 0 67.342 14.328 90.507 37.493 23.165 23.165 37.493 55.165 37.493 90.507zM492.248 1024c0 35.342-14.33 67.342-37.493 90.507C431.59 1137.672 399.59 1152 364.248 1152c-35.342 0-67.342-14.328-90.507-37.493-23.165-23.165-37.492-55.165-37.492-90.507 0-35.342 14.328-67.342 37.492-90.507C296.906 910.328 328.906 896 364.248 896c35.341 0 67.342 14.328 90.507 37.493 23.164 23.165 37.493 55.165 37.493 90.507zM1581.02 1581.02c-24.992 24.994-57.752 37.493-90.507 37.493-32.752 0-65.512-12.498-90.507-37.493-24.993-24.993-37.493-57.755-37.493-90.507s12.5-65.512 37.493-90.507c24.995-24.993 57.755-37.493 90.507-37.493s65.514 12.5 90.507 37.493c24.994 24.995 37.493 57.755 37.493 90.507 0 32.755-12.498 65.515-37.493 90.507zM647.992 647.992c-24.994 24.993-57.755 37.493-90.507 37.493s-65.513-12.5-90.507-37.493c-24.994-24.994-37.493-57.755-37.493-90.507 0-32.754 12.499-65.514 37.493-90.507 24.992-24.994 57.753-37.493 90.507-37.493 32.752 0 65.512 12.499 90.507 37.493 24.993 24.994 37.493 57.755 37.493 90.507s-12.5 65.512-37.493 90.507z"/></g></svg>